<?xml version="1.0" standalone="no"?><svg xmlns="http://www.w3.org/2000/svg" viewBox="0 0 1440 320"><path fill="#0099ff" fill-opacity="1" d="M0,224L24,213.3C48,203,96,181,144,154.7C192,128,240,96,288,90.7C336,85,384,107,432,106.7C480,107,528,85,576,112C624,139,672,213,720,234.7C768,256,816,224,864,181.3C912,139,960,85,1008,64C1056,43,1104,53,1152,101.3C1200,149,1248,235,1296,224C1344,213,1392,107,1416,53.3L1440,0L1440,320L1416,320C1392,320,1344,320,1296,320C1248,320,1200,320,1152,320C1104,320,1056,320,1008,320C960,320,912,320,864,320C816,320,768,320,720,320C672,320,624,320,576,320C528,320,480,320,432,320C384,320,336,320,288,320C240,320,192,320,144,320C96,320,48,320,24,320L0,320Z"></path></svg>